<?xml version="1.0" encoding="iso-8859-1"?>
<!-- Generator: Adobe Illustrator 21.0.0, SVG Export Plug-In . SVG Version: 6.00 Build 0)  -->
<svg version="1.1" id="Layer_1" xmlns="http://www.w3.org/2000/svg" xmlns:xlink="http://www.w3.org/1999/xlink" x="0px" y="0px"
	 viewBox="0 0 100.353 100.353" style="enable-background:new 0 0 100.353 100.353;" xml:space="preserve">
<g>
	<path style="fill:#231F20;" d="M91.429,53.554c-3.376-2.741-8.017-2.954-12.504-3.161c-4.073-0.187-7.921-0.364-10.312-2.376
		c0,0,0,0-0.001-0.001c-0.62-0.521-0.826-0.901-0.814-1.069c0.054-0.779,2.349-2.217,4.025-3.268
		c3.646-2.285,8.182-5.128,8.401-9.963c0.201-4.438-3.452-9.458-11.167-15.343c-0.037-0.036-0.077-0.07-0.118-0.102
		c-9.735-7.543-21.185-10.57-32.247-8.521c-10.714,1.985-20.095,8.459-25.737,17.764C0.105,45.413,8.391,70.358,29.427,83.12
		c8.669,5.255,18.254,7.782,27.31,7.782c13.477,0,25.784-5.595,32.166-16.12C92.555,68.744,96.471,57.639,91.429,53.554z
		 M86.336,73.23c-9.825,16.205-35.174,19.56-55.354,7.326c-19.622-11.904-27.456-35-17.462-51.485
		c5.2-8.574,13.845-14.54,23.718-16.369c2.072-0.384,4.159-0.574,6.248-0.574c8.169,0,16.341,2.905,23.534,8.454
		c0.024,0.022,0.048,0.044,0.073,0.065c0.022,0.019,0.044,0.037,0.068,0.055c6.831,5.198,10.217,9.531,10.065,12.88
		c-0.148,3.264-3.787,5.544-6.998,7.557c-2.825,1.771-5.265,3.3-5.425,5.601c-0.087,1.251,0.545,2.454,1.878,3.574
		c3.169,2.667,7.712,2.875,12.105,3.078c4.187,0.192,8.142,0.374,10.752,2.494C92.689,58.436,89.644,67.761,86.336,73.23z"/>
	<path style="fill:#231F20;" d="M56.346,36.731c1.805,1.098,3.787,1.673,5.666,1.673c0.695,0,1.375-0.079,2.028-0.238
		c1.739-0.426,3.103-1.385,3.943-2.775c2.047-3.4,0.167-8.308-4.19-10.939c-2.479-1.503-5.282-2.025-7.695-1.431
		c-1.736,0.428-3.097,1.389-3.931,2.776c-0.845,1.392-1.065,3.048-0.638,4.79C52.12,32.997,53.877,35.237,56.346,36.731z
		 M54.734,27.348c0.527-0.875,1.423-1.252,2.082-1.415c0.411-0.101,0.847-0.15,1.299-0.15c1.333,0,2.799,0.43,4.125,1.235
		c0.001,0,0.002,0.001,0.003,0.002c2.894,1.747,4.346,4.872,3.172,6.821c-0.528,0.873-1.427,1.249-2.088,1.411
		c-1.623,0.398-3.651-0.007-5.424-1.085c-1.77-1.071-3.063-2.676-3.46-4.295C54.279,29.208,54.197,28.233,54.734,27.348z"/>
	<path style="fill:#231F20;" d="M65.977,65.711C65.977,65.711,65.976,65.711,65.977,65.711c-1.897-1.151-4.13-1.492-6.287-0.962
		c-2.156,0.53-3.974,1.867-5.116,3.758c-1.153,1.889-1.5,4.115-0.977,6.268c0.525,2.162,1.862,3.989,3.764,5.143
		c1.34,0.815,2.823,1.203,4.29,1.203c2.809,0,5.558-1.424,7.126-3.999C71.152,73.21,69.896,68.092,65.977,65.711z M66.213,75.564
		c-1.526,2.505-4.798,3.309-7.294,1.791c-1.216-0.738-2.07-1.906-2.406-3.288c-0.334-1.374-0.113-2.792,0.626-4.002
		c0.731-1.211,1.892-2.064,3.269-2.403c0.424-0.104,0.852-0.156,1.277-0.156c0.957,0,1.897,0.261,2.736,0.77
		C66.925,69.798,67.729,73.068,66.213,75.564z"/>
	<path style="fill:#231F20;" d="M40.321,57.464c-1.895-1.151-4.126-1.494-6.28-0.965c-2.156,0.529-3.975,1.866-5.12,3.76
		c-1.154,1.896-1.499,4.128-0.97,6.285c0.528,2.154,1.864,3.976,3.762,5.131c1.312,0.796,2.785,1.205,4.282,1.205
		c0.667,0,1.339-0.081,2.003-0.245c2.154-0.532,3.975-1.871,5.125-3.768c1.149-1.887,1.492-4.113,0.966-6.267
		C43.561,60.44,42.223,58.616,40.321,57.464z M40.559,67.309c-0.737,1.216-1.902,2.074-3.28,2.414
		c-1.377,0.339-2.8,0.123-4.008-0.611c-1.214-0.738-2.069-1.904-2.407-3.282c-0.338-1.377-0.118-2.801,0.621-4.015
		c0.732-1.211,1.894-2.064,3.27-2.402c0.422-0.104,0.849-0.155,1.272-0.155c0.957,0,1.897,0.261,2.735,0.77
		c0,0,0.001,0.001,0.002,0.001c1.216,0.736,2.071,1.902,2.409,3.283C41.51,64.687,41.293,66.105,40.559,67.309z"/>
	<path style="fill:#231F20;" d="M32.052,46.371c1.149-1.893,1.491-4.122,0.963-6.276c-0.529-2.156-1.866-3.978-3.767-5.128
		c-1.899-1.153-4.132-1.496-6.287-0.966c-2.154,0.53-3.972,1.868-5.117,3.766c-2.371,3.906-1.117,9.022,2.797,11.408
		c1.313,0.797,2.787,1.206,4.286,1.206c0.666,0,1.336-0.081,1.999-0.244C29.082,49.607,30.902,48.269,32.052,46.371z M29.487,44.816
		c-0.736,1.214-1.9,2.069-3.278,2.408c-1.376,0.339-2.801,0.121-4.009-0.612c-2.502-1.524-3.306-4.794-1.79-7.291
		c0.732-1.213,1.893-2.068,3.267-2.406c0.422-0.104,0.849-0.155,1.273-0.155c0.958,0,1.9,0.262,2.741,0.772c0,0,0.001,0,0.002,0.001
		c1.215,0.735,2.07,1.899,2.408,3.277C30.439,42.185,30.221,43.607,29.487,44.816z"/>
</g>
</svg>
