<?xml version="1.0" encoding="iso-8859-1"?>
<!-- Generator: Adobe Illustrator 21.0.0, SVG Export Plug-In . SVG Version: 6.00 Build 0)  -->
<svg version="1.1" id="Layer_1" xmlns="http://www.w3.org/2000/svg" xmlns:xlink="http://www.w3.org/1999/xlink" x="0px" y="0px"
	 viewBox="0 0 100.353 100.353" style="enable-background:new 0 0 100.353 100.353;" xml:space="preserve">
<g>
	<path style="fill:#231F20;" d="M95.182,60.183c0-6.989-5.596-12.684-12.541-12.867c-5.095-12.923-17.617-22.127-32.283-22.324
		c1.183-1.463,2.328-3.318,2.374-5.07c0.095-3.764-2.262-5.138-3.982-6.141c-1.561-0.91-2.311-1.414-2.314-2.915
		c-0.006-2.961,2.831-3.234,3.391-3.259c0.828-0.025,1.479-0.717,1.453-1.545c-0.024-0.829-0.717-1.475-1.545-1.454
		c-2.183,0.066-6.309,1.461-6.299,6.265c0.009,3.287,2.201,4.565,3.803,5.499c1.719,1.002,2.543,1.568,2.495,3.472
		c-0.038,1.43-2.117,3.919-3.681,5.347c-13.207,1.436-24.237,10.204-28.937,22.138c-6.832,0.313-12.297,5.95-12.297,12.854
		c0,6.91,5.466,12.552,12.299,12.865C22.267,86.114,35.007,95.39,49.881,95.39c14.87,0,27.606-9.27,32.758-22.33
		C89.584,72.879,95.182,67.179,95.182,60.183z M7.819,60.183c0-4.885,3.569-8.943,8.236-9.734c-0.892,3.095-1.381,6.359-1.381,9.738
		c0,3.38,0.489,6.646,1.382,9.741C11.388,69.137,7.819,65.074,7.819,60.183z M49.881,92.39c-17.759,0-32.207-14.446-32.207-32.204
		c0-17.759,14.448-32.207,32.207-32.207s32.207,14.448,32.207,32.207C82.088,77.944,67.64,92.39,49.881,92.39z M83.695,69.968
		c0.901-3.107,1.393-6.387,1.393-9.781c0-3.393-0.492-6.671-1.392-9.777c4.788,0.682,8.486,4.799,8.486,9.774
		C92.182,65.164,88.484,69.286,83.695,69.968z"/>
	<path style="fill:#231F20;" d="M40.655,56.378c0,0.828,0.672,1.5,1.5,1.5s1.5-0.672,1.5-1.5c0-3.843-3.128-6.969-6.973-6.969
		s-6.973,3.126-6.973,6.969c0,0.828,0.672,1.5,1.5,1.5s1.5-0.672,1.5-1.5c0-2.188,1.782-3.969,3.973-3.969
		S40.655,54.189,40.655,56.378z"/>
	<path style="fill:#231F20;" d="M62.711,49.408c-3.845,0-6.973,3.126-6.973,6.969c0,0.828,0.672,1.5,1.5,1.5s1.5-0.672,1.5-1.5
		c0-2.188,1.782-3.969,3.973-3.969s3.973,1.781,3.973,3.969c0,0.828,0.672,1.5,1.5,1.5s1.5-0.672,1.5-1.5
		C69.684,52.535,66.556,49.408,62.711,49.408z"/>
	<path style="fill:#231F20;" d="M63.898,66.259c-0.828,0-1.5,0.672-1.5,1.5c0,6.904-5.615,12.52-12.518,12.52
		c-6.901,0-12.517-5.616-12.517-12.52c0-0.828-0.672-1.5-1.5-1.5s-1.5,0.672-1.5,1.5c0,8.558,6.961,15.52,15.517,15.52
		c8.557,0,15.518-6.962,15.518-15.52C65.398,66.93,64.727,66.259,63.898,66.259z"/>
</g>
</svg>
