<?xml version="1.0" encoding="UTF-8"?> <svg xmlns="http://www.w3.org/2000/svg" id="Слой_1" data-name="Слой 1" viewBox="0 0 100 100"> <defs> <style>.cls-1{fill:#e52254;}.cls-2{fill:#fff;}</style> </defs> <title>contМонтажная область 1 копия 2</title> <circle class="cls-1" cx="49.91" cy="50.02" r="50"></circle> <path class="cls-2" d="M56.3,61.2,66,45.61a1.19,1.19,0,0,0,.08-.16,17.6,17.6,0,1,0-30,0s.05.09.07.14l9.32,15.6c-7.27,1-12,4.09-12,7.8,0,4.56,7.75,8.14,17.64,8.14S68.68,73.56,68.68,69C68.68,65.22,63.77,62.16,56.3,61.2ZM37.81,44.56a15.53,15.53,0,0,1-2.32-10,15.8,15.8,0,0,1,14.64-14A15.63,15.63,0,0,1,64.3,44.56a.89.89,0,0,0-.08.17L50.78,66.32l-2.86-4.79h0l-10-16.77A.72.72,0,0,0,37.81,44.56ZM51,75.15c-9.21,0-15.68-3.25-15.68-6.16,0-2.68,4.77-5.18,11.19-5.92l3.38,5.67a1,1,0,0,0,.84.48h0a1,1,0,0,0,.83-.47l3.54-5.69c6.63.71,11.55,3.22,11.55,6,0,2.89-6.41,6.14-15.65,6.14Z"></path> <path class="cls-2" d="M51,42.4A6.41,6.41,0,1,0,44.62,36,6.4,6.4,0,0,0,51,42.4Zm0-10.84A4.43,4.43,0,1,1,46.6,36h0A4.43,4.43,0,0,1,51,31.56Z"></path> </svg> 