<?xml version="1.0" encoding="UTF-8"?> <svg xmlns="http://www.w3.org/2000/svg" id="Слой_1" data-name="Слой 1" viewBox="0 0 100 100"> <defs> <style>.cls-1{fill:#b09bf9;}.cls-2{fill:#fff;}</style> </defs> <title>contМонтажная область 1 копия 4</title> <circle class="cls-1" cx="50.48" cy="50.14" r="50"></circle> <path class="cls-2" d="M57.3,64A1,1,0,0,0,56,63.7l-6.65,4.11a5,5,0,0,1-6.69-1.48l-9-14.67a4.62,4.62,0,0,1,1.51-6.34L42,41.06a1,1,0,0,0,.31-1.33l-5.73-9.3a1,1,0,0,0-1.33-.32l-6.9,4.29C20.71,39.12,21,51.53,29,64.59c3.7,6,8.36,10.76,13.1,13.42a16.76,16.76,0,0,0,8.07,2.34,11.19,11.19,0,0,0,5.9-1.65l6.62-4.08A1,1,0,0,0,63,73.3Zm-2.2,13c-4.21,2.57-8.85,1-12-.74-4.5-2.49-8.87-7-12.4-12.74-7.46-12.09-8-23.42-1.29-27.54l6.09-3.76,4.71,7.64-6.09,3.76a6.54,6.54,0,0,0-2.12,9l9,14.67a6.93,6.93,0,0,0,9.33,2.11l5.84-3.6,4.72,7.62Z"></path> <path class="cls-2" d="M49.18,41.39a10.73,10.73,0,0,1,9.54,14.09,1,1,0,0,0,1.83.61,12.63,12.63,0,0,0-7.95-16,12.44,12.44,0,0,0-3.31-.64,1,1,0,0,0-1,.87v0a1,1,0,0,0,.9,1Z"></path> <path class="cls-2" d="M50.88,31.64a1,1,0,0,0-.22,1.93h0A18.6,18.6,0,0,1,66.47,57.22a1,1,0,0,0,1.83.61s0,0,0-.08A20.56,20.56,0,0,0,54.25,32.31,20.31,20.31,0,0,0,50.88,31.64Z"></path> <path class="cls-2" d="M71.68,37A27.56,27.56,0,0,0,52.37,24.75a1,1,0,0,0-1.1.84,1,1,0,0,0,.84,1.09A25.66,25.66,0,0,1,74,55.63a26.2,26.2,0,0,1-.65,3.17,1,1,0,0,0,1.86.5A27.58,27.58,0,0,0,71.68,37Z"></path> </svg> 