<?xml version="1.0" encoding="UTF-8"?> <svg xmlns="http://www.w3.org/2000/svg" id="Слой_1" data-name="Слой 1" viewBox="0 0 100 100"> <defs> <style>.cls-1{fill:#b7c821;}.cls-2{fill:#fff;}</style> </defs> <title>contМонтажная область 1 копия 3</title> <circle class="cls-1" cx="49.91" cy="50.02" r="50"></circle> <path class="cls-2" d="M73,30.93H34.35c-4.06,0-7.37,3-7.37,6.63v9.76H19.79a3.86,3.86,0,0,0-3.86,3.85V61.89a3.86,3.86,0,0,0,3.86,3.86h4.65a6.48,6.48,0,0,0,12.82.2H59.38a6.47,6.47,0,0,0,12.78,0h7.21a1,1,0,0,0,1-.81l0-.18a1.1,1.1,0,0,0,0-.18V37.56C80.39,33.9,77.08,30.93,73,30.93ZM29,38.55H39v8.82H29Zm12,0h12.3v8.81H40.93Zm14.28,0H67.27v8.81H55.21Zm14,0h9.16v8.81H69.25Zm-34.9-5.64H73a5.28,5.28,0,0,1,5.27,3.66H29.09A5.26,5.26,0,0,1,34.35,32.91Zm-3.49,36.5a4.51,4.51,0,1,1,4.51-4.51A4.51,4.51,0,0,1,30.86,69.41Zm34.91,0a4.51,4.51,0,1,1,4.51-4.51A4.51,4.51,0,0,1,65.77,69.41ZM72.18,64a6.48,6.48,0,0,0-12.82,0H37.27a6.48,6.48,0,0,0-12.79-.2H19.79a1.88,1.88,0,0,1-1.88-1.88V51.17a1.88,1.88,0,0,1,1.88-1.88h8.06a.81.81,0,0,0,.31.06H78.41V64Z"></path> </svg> 